# 3ds Max Wavefront OBJ Exporter v0.97b - (c)2007 guruware
# File Created: 27.01.2013 10:25:24

mtllib plate2.mtl

#
# object Cylinder001
#

v  32.0526 0.0000 0.1288
v  30.7563 0.0000 -8.8866
v  26.9727 0.0000 -17.1717
v  21.0081 0.0000 -24.0552
v  13.3458 0.0000 -28.9794
v  4.6066 0.0000 -31.5455
v  -4.5015 0.0000 -31.5455
v  -13.2407 0.0000 -28.9794
v  -20.9030 0.0000 -24.0552
v  -26.8676 0.0000 -17.1717
v  -30.6512 0.0000 -8.8866
v  -31.9474 0.0000 0.1288
v  -30.6512 0.0000 9.1443
v  -26.8676 0.0000 17.4293
v  -20.9030 0.0000 24.3128
v  -13.2407 0.0000 29.2370
v  -4.5015 0.0000 31.8031
v  4.6066 0.0000 31.8031
v  13.3458 0.0000 29.2371
v  21.0081 0.0000 24.3128
v  26.9726 0.0000 17.4294
v  30.7563 0.0000 9.1443
v  23.7269 1.2730 15.3434
v  18.4815 1.2730 21.3970
v  11.7430 1.2730 25.7275
v  4.0575 1.2730 27.9841
v  -3.9525 1.2730 27.9841
v  -11.6380 1.2730 25.7274
v  -18.3764 1.2730 21.3969
v  -23.6218 1.2730 15.3434
v  -26.9493 1.2730 8.0573
v  -28.0892 1.2730 0.1288
v  -26.9492 1.2730 -7.7996
v  -23.6218 1.2730 -15.0857
v  -18.3764 1.2730 -21.1393
v  -11.6380 1.2730 -25.4698
v  -3.9524 1.2730 -27.7265
v  4.0575 1.2730 -27.7265
v  11.7430 1.2730 -25.4698
v  18.4815 1.2730 -21.1393
v  23.7269 1.2730 -15.0857
v  27.0543 1.2730 -7.7996
v  28.1943 1.2730 0.1288
v  27.0543 1.2730 8.0573
v  35.4162 1.8605 0.1288
v  33.9837 1.8605 -9.8343
v  33.9837 1.8605 10.0919
v  29.8023 1.8605 19.2479
v  23.2108 1.8605 26.8549
v  14.7431 1.8605 32.2967
v  5.0853 1.8605 35.1325
v  -4.9802 1.8605 35.1325
v  -14.6380 1.8605 32.2967
v  -23.1057 1.8605 26.8549
v  -29.6972 1.8605 19.2478
v  -33.8786 1.8605 10.0919
v  -35.3111 1.8605 0.1288
v  -33.8786 1.8605 -9.8343
v  -29.6972 1.8605 -18.9902
v  -23.1057 1.8605 -26.5972
v  -14.6380 1.8605 -32.0390
v  -4.9802 1.8605 -34.8748
v  5.0853 1.8605 -34.8748
v  14.7431 1.8605 -32.0390
v  23.2108 1.8605 -26.5972
v  29.8023 1.8605 -18.9902
# 66 vertices

vn 1.0000 0.0000 -0.0000
vn 0.0000 -1.0000 -0.0000
vn 0.0000 1.0000 -0.0000
vn -0.4829 0.8729 0.0694
vn -0.4829 0.8729 -0.0694
vn -0.4437 0.8729 -0.2026
vn -0.3687 0.8729 -0.3195
vn -0.2637 0.8729 -0.4104
vn -0.1374 0.8729 -0.4681
vn 0.0000 0.8729 -0.4878
vn 0.1374 0.8729 -0.4681
vn 0.2637 0.8729 -0.4104
vn 0.3687 0.8729 -0.3195
vn 0.4437 0.8729 -0.2026
vn 0.4829 0.8729 -0.0694
vn 0.4829 0.8729 0.0694
vn 0.4437 0.8729 0.2026
vn 0.3687 0.8729 0.3195
vn 0.2637 0.8729 0.4104
vn 0.1374 0.8729 0.4681
vn 0.0000 0.8729 0.4878
vn -0.1374 0.8729 0.4681
vn -0.2637 0.8729 0.4104
vn -0.3687 0.8729 0.3195
vn -0.4437 0.8729 0.2026
vn 0.0811 -0.9966 -0.0117
vn 0.0811 -0.9966 0.0117
vn 0.0745 -0.9966 0.0340
vn 0.0619 -0.9966 0.0536
vn 0.0443 -0.9966 0.0689
vn 0.0231 -0.9966 0.0786
vn -0.0000 -0.9966 0.0819
vn -0.0231 -0.9966 0.0786
vn -0.0443 -0.9966 0.0689
vn -0.0619 -0.9966 0.0536
vn -0.0745 -0.9966 0.0340
vn -0.0811 -0.9966 0.0117
vn -0.0811 -0.9966 -0.0117
vn -0.0745 -0.9966 -0.0340
vn -0.0619 -0.9966 -0.0536
vn -0.0443 -0.9966 -0.0689
vn -0.0231 -0.9966 -0.0786
vn 0.0000 -0.9966 -0.0819
vn 0.0231 -0.9966 -0.0786
vn 0.0443 -0.9966 -0.0689
vn 0.0619 -0.9966 -0.0536
vn 0.0745 -0.9966 -0.0340
# 47 vertex normals

vt 150.7964 0.0000 1.0000
vt 159.9356 0.0000 1.0000
vt 169.0748 0.0000 1.0000
vt 178.2140 0.0000 1.0000
vt 187.3532 0.0000 1.0000
vt 196.4923 0.0000 1.0000
vt 205.6315 0.0000 1.0000
vt 4.5696 0.0000 1.0000
vt 13.7088 0.0000 1.0000
vt 22.8480 0.0000 1.0000
vt 31.9871 0.0000 1.0000
vt 41.1263 0.0000 1.0000
vt 50.2655 0.0000 1.0000
vt 59.4047 0.0000 1.0000
vt 68.5438 0.0000 1.0000
vt 77.6830 0.0000 1.0000
vt 86.8222 0.0000 1.0000
vt 95.9614 0.0000 1.0000
vt 105.1005 0.0000 1.0000
vt 114.2397 0.0000 1.0000
vt 123.3789 0.0000 1.0000
vt 132.5181 0.0000 1.0000
vt 141.6572 0.0000 1.0000
vt -4.5696 0.0000 1.0000
vt -13.7088 0.0000 1.0000
vt -22.8479 0.0000 1.0000
vt -31.9871 0.0000 1.0000
vt -41.1263 0.0000 1.0000
vt -50.2655 0.0000 1.0000
vt -59.4047 0.0000 1.0000
vt 214.7707 0.0000 1.0000
vt 223.9099 0.0000 1.0000
vt 233.0491 0.0000 1.0000
vt 242.1882 0.0000 1.0000
vt 251.3274 0.0000 1.0000
vt 260.4666 0.0000 1.0000
vt 269.6058 0.0000 1.0000
vt 278.7449 0.0000 1.0000
vt 287.8841 0.0000 1.0000
vt 297.0233 0.0000 1.0000
vt 306.1625 0.0000 1.0000
vt 315.3017 0.0000 1.0000
vt 324.4408 0.0000 1.0000
vt 333.5800 0.0000 1.0000
vt 342.7192 0.0000 1.0000
vt 351.8584 0.0000 1.0000
# 46 texture coords

g Cylinder001
usemtl wire_006135006
s 8
f 1/1/1 2/2/1 2/2/1 
f 2/2/1 1/1/1 1/1/1 
f 2/2/1 3/3/1 3/3/1 
f 3/3/1 2/2/1 2/2/1 
f 3/3/1 4/4/1 4/4/1 
f 4/4/1 3/3/1 3/3/1 
f 4/4/1 5/5/1 5/5/1 
f 5/5/1 4/4/1 4/4/1 
f 5/5/1 6/6/1 6/6/1 
f 6/6/1 5/5/1 5/5/1 
f 6/6/1 7/7/1 7/7/1 
f 7/7/1 6/6/1 6/6/1 
f 7/8/1 8/9/1 8/9/1 
f 8/9/1 7/8/1 7/8/1 
f 8/9/1 9/10/1 9/10/1 
f 9/10/1 8/9/1 8/9/1 
f 9/10/1 10/11/1 10/11/1 
f 10/11/1 9/10/1 9/10/1 
f 10/11/1 11/12/1 11/12/1 
f 11/12/1 10/11/1 10/11/1 
f 11/12/1 12/13/1 12/13/1 
f 12/13/1 11/12/1 11/12/1 
f 12/13/1 13/14/1 13/14/1 
f 13/14/1 12/13/1 12/13/1 
f 13/14/1 14/15/1 14/15/1 
f 14/15/1 13/14/1 13/14/1 
f 14/15/1 15/16/1 15/16/1 
f 15/16/1 14/15/1 14/15/1 
f 15/16/1 16/17/1 16/17/1 
f 16/17/1 15/16/1 15/16/1 
f 16/17/1 17/18/1 17/18/1 
f 17/18/1 16/17/1 16/17/1 
f 17/18/1 18/19/1 18/19/1 
f 18/19/1 17/18/1 17/18/1 
f 18/19/1 19/20/1 19/20/1 
f 19/20/1 18/19/1 18/19/1 
f 19/20/1 20/21/1 20/21/1 
f 20/21/1 19/20/1 19/20/1 
f 20/21/1 21/22/1 21/22/1 
f 21/22/1 20/21/1 20/21/1 
f 21/22/1 22/23/1 22/23/1 
f 22/23/1 21/22/1 21/22/1 
f 22/23/1 1/1/1 1/1/1 
f 1/1/1 22/23/1 22/23/1 
f 1/1/1 2/2/1 2/2/1 
f 2/2/1 1/1/1 1/1/1 
f 2/2/1 3/3/1 3/3/1 
f 3/3/1 2/2/1 2/2/1 
f 3/3/1 4/4/1 4/4/1 
f 4/4/1 3/3/1 3/3/1 
f 4/4/1 5/5/1 5/5/1 
f 5/5/1 4/4/1 4/4/1 
f 5/5/1 6/6/1 6/6/1 
f 6/6/1 5/5/1 5/5/1 
f 6/6/1 7/7/1 7/7/1 
f 7/7/1 6/6/1 6/6/1 
f 7/8/1 8/9/1 8/9/1 
f 8/9/1 7/8/1 7/8/1 
f 8/9/1 9/10/1 9/10/1 
f 9/10/1 8/9/1 8/9/1 
f 9/10/1 10/11/1 10/11/1 
f 10/11/1 9/10/1 9/10/1 
f 10/11/1 11/12/1 11/12/1 
f 11/12/1 10/11/1 10/11/1 
f 11/12/1 12/13/1 12/13/1 
f 12/13/1 11/12/1 11/12/1 
f 12/13/1 13/14/1 13/14/1 
f 13/14/1 12/13/1 12/13/1 
f 13/14/1 14/15/1 14/15/1 
f 14/15/1 13/14/1 13/14/1 
f 14/15/1 15/16/1 15/16/1 
f 15/16/1 14/15/1 14/15/1 
f 15/16/1 16/17/1 16/17/1 
f 16/17/1 15/16/1 15/16/1 
f 16/17/1 17/18/1 17/18/1 
f 17/18/1 16/17/1 16/17/1 
f 17/18/1 18/19/1 18/19/1 
f 18/19/1 17/18/1 17/18/1 
f 18/19/1 19/20/1 19/20/1 
f 19/20/1 18/19/1 18/19/1 
f 19/20/1 20/21/1 20/21/1 
f 20/21/1 19/20/1 19/20/1 
f 20/21/1 21/22/1 21/22/1 
f 21/22/1 20/21/1 20/21/1 
f 21/22/1 22/23/1 22/23/1 
f 22/23/1 21/22/1 21/22/1 
f 22/23/1 1/1/1 1/1/1 
f 1/1/1 22/23/1 22/23/1 
f 1/1/1 2/2/1 2/2/1 
f 2/2/1 1/1/1 1/1/1 
f 2/2/1 3/3/1 3/3/1 
f 3/3/1 2/2/1 2/2/1 
f 3/3/1 4/4/1 4/4/1 
f 4/4/1 3/3/1 3/3/1 
f 4/4/1 5/5/1 5/5/1 
f 5/5/1 4/4/1 4/4/1 
f 5/5/1 6/6/1 6/6/1 
f 6/6/1 5/5/1 5/5/1 
f 6/6/1 7/7/1 7/7/1 
f 7/7/1 6/6/1 6/6/1 
f 7/8/1 8/9/1 8/9/1 
f 8/9/1 7/8/1 7/8/1 
f 8/9/1 9/10/1 9/10/1 
f 9/10/1 8/9/1 8/9/1 
f 9/10/1 10/11/1 10/11/1 
f 10/11/1 9/10/1 9/10/1 
f 10/11/1 11/12/1 11/12/1 
f 11/12/1 10/11/1 10/11/1 
f 11/12/1 12/13/1 12/13/1 
f 12/13/1 11/12/1 11/12/1 
f 12/13/1 13/14/1 13/14/1 
f 13/14/1 12/13/1 12/13/1 
f 13/14/1 14/15/1 14/15/1 
f 14/15/1 13/14/1 13/14/1 
f 14/15/1 15/16/1 15/16/1 
f 15/16/1 14/15/1 14/15/1 
f 15/16/1 16/17/1 16/17/1 
f 16/17/1 15/16/1 15/16/1 
f 16/17/1 17/18/1 17/18/1 
f 17/18/1 16/17/1 16/17/1 
f 17/18/1 18/19/1 18/19/1 
f 18/19/1 17/18/1 17/18/1 
f 18/19/1 19/20/1 19/20/1 
f 19/20/1 18/19/1 18/19/1 
f 19/20/1 20/21/1 20/21/1 
f 20/21/1 19/20/1 19/20/1 
f 20/21/1 21/22/1 21/22/1 
f 21/22/1 20/21/1 20/21/1 
f 21/22/1 22/23/1 22/23/1 
f 22/23/1 21/22/1 21/22/1 
f 22/23/1 1/1/1 1/1/1 
f 1/1/1 22/23/1 22/23/1 
f 1/1/1 2/2/1 2/2/1 
f 2/2/1 1/1/1 1/1/1 
f 2/2/1 3/3/1 3/3/1 
f 3/3/1 2/2/1 2/2/1 
f 3/3/1 4/4/1 4/4/1 
f 4/4/1 3/3/1 3/3/1 
f 4/4/1 5/5/1 5/5/1 
f 5/5/1 4/4/1 4/4/1 
f 5/5/1 6/6/1 6/6/1 
f 6/6/1 5/5/1 5/5/1 
f 6/6/1 7/7/1 7/7/1 
f 7/7/1 6/6/1 6/6/1 
f 7/8/1 8/9/1 8/9/1 
f 8/9/1 7/8/1 7/8/1 
f 8/9/1 9/10/1 9/10/1 
f 9/10/1 8/9/1 8/9/1 
f 9/10/1 10/11/1 10/11/1 
f 10/11/1 9/10/1 9/10/1 
f 10/11/1 11/12/1 11/12/1 
f 11/12/1 10/11/1 10/11/1 
f 11/12/1 12/13/1 12/13/1 
f 12/13/1 11/12/1 11/12/1 
f 12/13/1 13/14/1 13/14/1 
f 13/14/1 12/13/1 12/13/1 
f 13/14/1 14/15/1 14/15/1 
f 14/15/1 13/14/1 13/14/1 
f 14/15/1 15/16/1 15/16/1 
f 15/16/1 14/15/1 14/15/1 
f 15/16/1 16/17/1 16/17/1 
f 16/17/1 15/16/1 15/16/1 
f 16/17/1 17/18/1 17/18/1 
f 17/18/1 16/17/1 16/17/1 
f 17/18/1 18/19/1 18/19/1 
f 18/19/1 17/18/1 17/18/1 
f 18/19/1 19/20/1 19/20/1 
f 19/20/1 18/19/1 18/19/1 
f 19/20/1 20/21/1 20/21/1 
f 20/21/1 19/20/1 19/20/1 
f 20/21/1 21/22/1 21/22/1 
f 21/22/1 20/21/1 20/21/1 
f 21/22/1 22/23/1 22/23/1 
f 22/23/1 21/22/1 21/22/1 
f 22/23/1 1/1/1 1/1/1 
f 1/1/1 22/23/1 22/23/1 
f 1/1/1 2/2/1 2/2/1 
f 2/2/1 1/1/1 1/1/1 
f 2/2/1 3/3/1 3/3/1 
f 3/3/1 2/2/1 2/2/1 
f 3/3/1 4/4/1 4/4/1 
f 4/4/1 3/3/1 3/3/1 
f 4/4/1 5/5/1 5/5/1 
f 5/5/1 4/4/1 4/4/1 
f 5/5/1 6/6/1 6/6/1 
f 6/6/1 5/5/1 5/5/1 
f 6/6/1 7/7/1 7/7/1 
f 7/7/1 6/6/1 6/6/1 
f 7/8/1 8/9/1 8/9/1 
f 8/9/1 7/8/1 7/8/1 
f 8/9/1 9/10/1 9/10/1 
f 9/10/1 8/9/1 8/9/1 
f 9/10/1 10/11/1 10/11/1 
f 10/11/1 9/10/1 9/10/1 
f 10/11/1 11/12/1 11/12/1 
f 11/12/1 10/11/1 10/11/1 
f 11/12/1 12/13/1 12/13/1 
f 12/13/1 11/12/1 11/12/1 
f 12/13/1 13/14/1 13/14/1 
f 13/14/1 12/13/1 12/13/1 
f 13/14/1 14/15/1 14/15/1 
f 14/15/1 13/14/1 13/14/1 
f 14/15/1 15/16/1 15/16/1 
f 15/16/1 14/15/1 14/15/1 
f 15/16/1 16/17/1 16/17/1 
f 16/17/1 15/16/1 15/16/1 
f 16/17/1 17/18/1 17/18/1 
f 17/18/1 16/17/1 16/17/1 
f 17/18/1 18/19/1 18/19/1 
f 18/19/1 17/18/1 17/18/1 
f 18/19/1 19/20/1 19/20/1 
f 19/20/1 18/19/1 18/19/1 
f 19/20/1 20/21/1 20/21/1 
f 20/21/1 19/20/1 19/20/1 
f 20/21/1 21/22/1 21/22/1 
f 21/22/1 20/21/1 20/21/1 
f 21/22/1 22/23/1 22/23/1 
f 22/23/1 21/22/1 21/22/1 
f 22/23/1 1/1/1 1/1/1 
f 1/1/1 22/23/1 22/23/1 
s 1
f 23/22/2 24/21/2 25/20/2 
f 25/20/2 26/19/2 27/18/2 
f 27/18/2 28/17/2 29/16/2 
f 25/20/2 27/18/2 29/16/2 
f 29/16/2 30/15/2 31/14/2 
f 31/14/2 32/13/2 33/12/2 
f 29/16/2 31/14/2 33/12/2 
f 25/20/2 29/16/2 33/12/2 
f 33/12/2 34/11/2 35/10/2 
f 35/10/2 36/9/2 37/8/2 
f 33/12/2 35/10/2 37/8/2 
f 37/8/2 38/24/2 39/25/2 
f 39/25/2 40/26/2 41/27/2 
f 37/8/2 39/25/2 41/27/2 
f 33/12/2 37/8/2 41/27/2 
f 25/20/2 33/12/2 41/27/2 
f 41/27/2 42/28/2 43/29/2 
f 25/20/2 41/27/2 43/29/2 
f 23/22/2 25/20/2 43/29/2 
f 44/30/2 23/22/2 43/29/2 
f 2/2/3 3/3/3 4/4/3 
f 4/4/3 5/5/3 6/6/3 
f 6/6/3 7/7/3 8/31/3 
f 4/4/3 6/6/3 8/31/3 
f 8/31/3 9/32/3 10/33/3 
f 10/33/3 11/34/3 12/35/3 
f 8/31/3 10/33/3 12/35/3 
f 4/4/3 8/31/3 12/35/3 
f 12/35/3 13/36/3 14/37/3 
f 14/37/3 15/38/3 16/39/3 
f 12/35/3 14/37/3 16/39/3 
f 16/39/3 17/40/3 18/41/3 
f 18/41/3 19/42/3 20/43/3 
f 16/39/3 18/41/3 20/43/3 
f 12/35/3 16/39/3 20/43/3 
f 4/4/3 12/35/3 20/43/3 
f 20/43/3 21/44/3 22/45/3 
f 4/4/3 20/43/3 22/45/3 
f 2/2/3 4/4/3 22/45/3 
f 1/46/3 2/2/3 22/45/3 
s off
f 2/2/4 1/1/4 45/29/4 
f 45/29/4 46/28/4 2/2/4 
f 1/1/5 22/23/5 47/30/5 
f 47/30/5 45/29/5 1/1/5 
f 22/23/6 21/22/6 48/22/6 
f 48/22/6 47/30/6 22/23/6 
f 21/22/7 20/21/7 49/21/7 
f 49/21/7 48/22/7 21/22/7 
f 20/21/8 19/20/8 50/20/8 
f 50/20/8 49/21/8 20/21/8 
f 19/20/9 18/19/9 51/19/9 
f 51/19/9 50/20/9 19/20/9 
f 18/19/10 17/18/10 52/18/10 
f 52/18/10 51/19/10 18/19/10 
f 17/18/11 16/17/11 53/17/11 
f 53/17/11 52/18/11 17/18/11 
f 16/17/12 15/16/12 54/16/12 
f 54/16/12 53/17/12 16/17/12 
f 15/16/13 14/15/13 55/15/13 
f 55/15/13 54/16/13 15/16/13 
f 14/15/14 13/14/14 56/14/14 
f 56/14/14 55/15/14 14/15/14 
f 13/14/15 12/13/15 57/13/15 
f 57/13/15 56/14/15 13/14/15 
f 12/13/16 11/12/16 58/12/16 
f 58/12/16 57/13/16 12/13/16 
f 11/12/17 10/11/17 59/11/17 
f 59/11/17 58/12/17 11/12/17 
f 10/11/18 9/10/18 60/10/18 
f 60/10/18 59/11/18 10/11/18 
f 9/10/19 8/9/19 61/9/19 
f 61/9/19 60/10/19 9/10/19 
f 8/9/20 7/8/20 62/8/20 
f 62/8/20 61/9/20 8/9/20 
f 7/7/21 6/6/21 63/24/21 
f 63/24/21 62/8/21 7/7/21 
f 6/6/22 5/5/22 64/25/22 
f 64/25/22 63/24/22 6/6/22 
f 5/5/23 4/4/23 65/26/23 
f 65/26/23 64/25/23 5/5/23 
f 4/4/24 3/3/24 66/27/24 
f 66/27/24 65/26/24 4/4/24 
f 3/3/25 2/2/25 46/28/25 
f 46/28/25 66/27/25 3/3/25 
f 46/28/26 45/29/26 43/29/26 
f 43/29/26 42/28/26 46/28/26 
f 45/29/27 47/30/27 44/30/27 
f 44/30/27 43/29/27 45/29/27 
f 47/30/28 48/22/28 23/22/28 
f 23/22/28 44/30/28 47/30/28 
f 48/22/29 49/21/29 24/21/29 
f 24/21/29 23/22/29 48/22/29 
f 49/21/30 50/20/30 25/20/30 
f 25/20/30 24/21/30 49/21/30 
f 50/20/31 51/19/31 26/19/31 
f 26/19/31 25/20/31 50/20/31 
f 51/19/32 52/18/32 27/18/32 
f 27/18/32 26/19/32 51/19/32 
f 52/18/33 53/17/33 28/17/33 
f 28/17/33 27/18/33 52/18/33 
f 53/17/34 54/16/34 29/16/34 
f 29/16/34 28/17/34 53/17/34 
f 54/16/35 55/15/35 30/15/35 
f 30/15/35 29/16/35 54/16/35 
f 55/15/36 56/14/36 31/14/36 
f 31/14/36 30/15/36 55/15/36 
f 56/14/37 57/13/37 32/13/37 
f 32/13/37 31/14/37 56/14/37 
f 57/13/38 58/12/38 33/12/38 
f 33/12/38 32/13/38 57/13/38 
f 58/12/39 59/11/39 34/11/39 
f 34/11/39 33/12/39 58/12/39 
f 59/11/40 60/10/40 35/10/40 
f 35/10/40 34/11/40 59/11/40 
f 60/10/41 61/9/41 36/9/41 
f 36/9/41 35/10/41 60/10/41 
f 61/9/42 62/8/42 37/8/42 
f 37/8/42 36/9/42 61/9/42 
f 62/8/43 63/24/43 38/24/43 
f 38/24/43 37/8/43 62/8/43 
f 63/24/44 64/25/44 39/25/44 
f 39/25/44 38/24/44 63/24/44 
f 64/25/45 65/26/45 40/26/45 
f 40/26/45 39/25/45 64/25/45 
f 65/26/46 66/27/46 41/27/46 
f 41/27/46 40/26/46 65/26/46 
f 66/27/47 46/28/47 42/28/47 
f 42/28/47 41/27/47 66/27/47 
# 348 faces

