# 3ds Max Wavefront OBJ Exporter v0.97b - (c)2007 guruware
# File Created: 27.01.2013 11:45:08

mtllib plate3.mtl

#
# object Cylinder001
#

v  -0.2148 0.0000 -0.3920
v  30.6948 0.0000 -8.6742
v  31.7852 0.0000 -0.3920
v  27.4980 0.0000 -16.3920
v  22.4126 0.0000 -23.0194
v  15.7852 0.0000 -28.1048
v  8.0674 0.0000 -31.3016
v  -0.2148 0.0000 -32.3920
v  -8.4970 0.0000 -31.3016
v  -16.2148 0.0000 -28.1048
v  -22.8423 0.0000 -23.0194
v  -27.9277 0.0000 -16.3920
v  -31.1245 0.0000 -8.6742
v  -32.2148 0.0000 -0.3920
v  -31.1245 0.0000 7.8902
v  -27.9277 0.0000 15.6080
v  -22.8423 0.0000 22.2355
v  -16.2149 0.0000 27.3209
v  -8.4971 0.0000 30.5177
v  -0.2149 0.0000 31.6080
v  8.0673 0.0000 30.5177
v  15.7851 0.0000 27.3209
v  22.4126 0.0000 22.2355
v  27.4980 0.0000 15.6081
v  30.6948 0.0000 7.8903
# 25 vertices

vn 0.0000 -1.0000 -0.0000
vn 1.0000 0.0000 -0.0000
vn 0.0000 1.0000 -0.0000
# 3 vertex normals

vt 32.0000 32.0000 0.0000
vt 62.9096 23.7178 0.0000
vt 64.0000 32.0000 0.0000
vt 59.7128 16.0000 0.0000
vt 54.6274 9.3726 0.0000
vt 48.0000 4.2872 0.0000
vt 40.2822 1.0904 0.0000
vt 32.0000 0.0000 0.0000
vt 23.7178 1.0904 0.0000
vt 16.0000 4.2872 0.0000
vt 9.3726 9.3726 0.0000
vt 4.2872 16.0000 0.0000
vt 1.0904 23.7178 0.0000
vt 0.0000 32.0000 0.0000
vt 1.0904 40.2822 0.0000
vt 4.2872 48.0000 0.0000
vt 9.3726 54.6274 0.0000
vt 16.0000 59.7128 0.0000
vt 23.7178 62.9096 0.0000
vt 32.0000 64.0000 0.0000
vt 40.2822 62.9096 0.0000
vt 48.0000 59.7128 0.0000
vt 54.6274 54.6274 0.0000
vt 59.7128 48.0000 0.0000
vt 62.9096 40.2822 0.0000
vt 150.7964 0.0000 1.0000
vt 159.1740 0.0000 1.0000
vt 167.5516 0.0000 1.0000
vt 175.9292 0.0000 1.0000
vt 184.3068 0.0000 1.0000
vt 192.6844 0.0000 1.0000
vt 201.0619 0.0000 1.0000
vt -0.0000 0.0000 1.0000
vt 8.3776 0.0000 1.0000
vt 16.7552 0.0000 1.0000
vt 25.1327 0.0000 1.0000
vt 33.5103 0.0000 1.0000
vt 41.8879 0.0000 1.0000
vt 50.2655 0.0000 1.0000
vt 58.6431 0.0000 1.0000
vt 67.0206 0.0000 1.0000
vt 75.3982 0.0000 1.0000
vt 83.7758 0.0000 1.0000
vt 92.1534 0.0000 1.0000
vt 100.5310 0.0000 1.0000
vt 108.9085 0.0000 1.0000
vt 117.2861 0.0000 1.0000
vt 125.6637 0.0000 1.0000
vt 134.0413 0.0000 1.0000
vt 142.4189 0.0000 1.0000
# 50 texture coords

g Cylinder001
usemtl wire_141007058
s 1
f 1/1/1 2/2/1 3/3/1 
f 1/1/1 4/4/1 2/2/1 
f 1/1/1 5/5/1 4/4/1 
f 1/1/1 6/6/1 5/5/1 
f 1/1/1 7/7/1 6/6/1 
f 1/1/1 8/8/1 7/7/1 
f 1/1/1 9/9/1 8/8/1 
f 1/1/1 10/10/1 9/9/1 
f 1/1/1 11/11/1 10/10/1 
f 1/1/1 12/12/1 11/11/1 
f 1/1/1 13/13/1 12/12/1 
f 1/1/1 14/14/1 13/13/1 
f 1/1/1 15/15/1 14/14/1 
f 1/1/1 16/16/1 15/15/1 
f 1/1/1 17/17/1 16/16/1 
f 1/1/1 18/18/1 17/17/1 
f 1/1/1 19/19/1 18/18/1 
f 1/1/1 20/20/1 19/19/1 
f 1/1/1 21/21/1 20/20/1 
f 1/1/1 22/22/1 21/21/1 
f 1/1/1 23/23/1 22/22/1 
f 1/1/1 24/24/1 23/23/1 
f 1/1/1 25/25/1 24/24/1 
f 1/1/1 3/3/1 25/25/1 
s 8
f 3/26/2 2/27/2 3/26/2 
f 3/26/2 2/27/2 2/27/2 
f 2/27/2 4/28/2 2/27/2 
f 2/27/2 4/28/2 4/28/2 
f 4/28/2 5/29/2 4/28/2 
f 4/28/2 5/29/2 5/29/2 
f 5/29/2 6/30/2 5/29/2 
f 5/29/2 6/30/2 6/30/2 
f 6/30/2 7/31/2 6/30/2 
f 6/30/2 7/31/2 7/31/2 
f 7/31/2 8/32/2 7/31/2 
f 7/31/2 8/32/2 8/32/2 
f 8/33/2 9/34/2 8/33/2 
f 8/33/2 9/34/2 9/34/2 
f 9/34/2 10/35/2 9/34/2 
f 9/34/2 10/35/2 10/35/2 
f 10/35/2 11/36/2 10/35/2 
f 10/35/2 11/36/2 11/36/2 
f 11/36/2 12/37/2 11/36/2 
f 11/36/2 12/37/2 12/37/2 
f 12/37/2 13/38/2 12/37/2 
f 12/37/2 13/38/2 13/38/2 
f 13/38/2 14/39/2 13/38/2 
f 13/38/2 14/39/2 14/39/2 
f 14/39/2 15/40/2 14/39/2 
f 14/39/2 15/40/2 15/40/2 
f 15/40/2 16/41/2 15/40/2 
f 15/40/2 16/41/2 16/41/2 
f 16/41/2 17/42/2 16/41/2 
f 16/41/2 17/42/2 17/42/2 
f 17/42/2 18/43/2 17/42/2 
f 17/42/2 18/43/2 18/43/2 
f 18/43/2 19/44/2 18/43/2 
f 18/43/2 19/44/2 19/44/2 
f 19/44/2 20/45/2 19/44/2 
f 19/44/2 20/45/2 20/45/2 
f 20/45/2 21/46/2 20/45/2 
f 20/45/2 21/46/2 21/46/2 
f 21/46/2 22/47/2 21/46/2 
f 21/46/2 22/47/2 22/47/2 
f 22/47/2 23/48/2 22/47/2 
f 22/47/2 23/48/2 23/48/2 
f 23/48/2 24/49/2 23/48/2 
f 23/48/2 24/49/2 24/49/2 
f 24/49/2 25/50/2 24/49/2 
f 24/49/2 25/50/2 25/50/2 
f 25/50/2 3/26/2 25/50/2 
f 25/50/2 3/26/2 3/26/2 
f 3/26/2 2/27/2 3/26/2 
f 3/26/2 2/27/2 2/27/2 
f 2/27/2 4/28/2 2/27/2 
f 2/27/2 4/28/2 4/28/2 
f 4/28/2 5/29/2 4/28/2 
f 4/28/2 5/29/2 5/29/2 
f 5/29/2 6/30/2 5/29/2 
f 5/29/2 6/30/2 6/30/2 
f 6/30/2 7/31/2 6/30/2 
f 6/30/2 7/31/2 7/31/2 
f 7/31/2 8/32/2 7/31/2 
f 7/31/2 8/32/2 8/32/2 
f 8/33/2 9/34/2 8/33/2 
f 8/33/2 9/34/2 9/34/2 
f 9/34/2 10/35/2 9/34/2 
f 9/34/2 10/35/2 10/35/2 
f 10/35/2 11/36/2 10/35/2 
f 10/35/2 11/36/2 11/36/2 
f 11/36/2 12/37/2 11/36/2 
f 11/36/2 12/37/2 12/37/2 
f 12/37/2 13/38/2 12/37/2 
f 12/37/2 13/38/2 13/38/2 
f 13/38/2 14/39/2 13/38/2 
f 13/38/2 14/39/2 14/39/2 
f 14/39/2 15/40/2 14/39/2 
f 14/39/2 15/40/2 15/40/2 
f 15/40/2 16/41/2 15/40/2 
f 15/40/2 16/41/2 16/41/2 
f 16/41/2 17/42/2 16/41/2 
f 16/41/2 17/42/2 17/42/2 
f 17/42/2 18/43/2 17/42/2 
f 17/42/2 18/43/2 18/43/2 
f 18/43/2 19/44/2 18/43/2 
f 18/43/2 19/44/2 19/44/2 
f 19/44/2 20/45/2 19/44/2 
f 19/44/2 20/45/2 20/45/2 
f 20/45/2 21/46/2 20/45/2 
f 20/45/2 21/46/2 21/46/2 
f 21/46/2 22/47/2 21/46/2 
f 21/46/2 22/47/2 22/47/2 
f 22/47/2 23/48/2 22/47/2 
f 22/47/2 23/48/2 23/48/2 
f 23/48/2 24/49/2 23/48/2 
f 23/48/2 24/49/2 24/49/2 
f 24/49/2 25/50/2 24/49/2 
f 24/49/2 25/50/2 25/50/2 
f 25/50/2 3/26/2 25/50/2 
f 25/50/2 3/26/2 3/26/2 
f 3/26/2 2/27/2 3/26/2 
f 3/26/2 2/27/2 2/27/2 
f 2/27/2 4/28/2 2/27/2 
f 2/27/2 4/28/2 4/28/2 
f 4/28/2 5/29/2 4/28/2 
f 4/28/2 5/29/2 5/29/2 
f 5/29/2 6/30/2 5/29/2 
f 5/29/2 6/30/2 6/30/2 
f 6/30/2 7/31/2 6/30/2 
f 6/30/2 7/31/2 7/31/2 
f 7/31/2 8/32/2 7/31/2 
f 7/31/2 8/32/2 8/32/2 
f 8/33/2 9/34/2 8/33/2 
f 8/33/2 9/34/2 9/34/2 
f 9/34/2 10/35/2 9/34/2 
f 9/34/2 10/35/2 10/35/2 
f 10/35/2 11/36/2 10/35/2 
f 10/35/2 11/36/2 11/36/2 
f 11/36/2 12/37/2 11/36/2 
f 11/36/2 12/37/2 12/37/2 
f 12/37/2 13/38/2 12/37/2 
f 12/37/2 13/38/2 13/38/2 
f 13/38/2 14/39/2 13/38/2 
f 13/38/2 14/39/2 14/39/2 
f 14/39/2 15/40/2 14/39/2 
f 14/39/2 15/40/2 15/40/2 
f 15/40/2 16/41/2 15/40/2 
f 15/40/2 16/41/2 16/41/2 
f 16/41/2 17/42/2 16/41/2 
f 16/41/2 17/42/2 17/42/2 
f 17/42/2 18/43/2 17/42/2 
f 17/42/2 18/43/2 18/43/2 
f 18/43/2 19/44/2 18/43/2 
f 18/43/2 19/44/2 19/44/2 
f 19/44/2 20/45/2 19/44/2 
f 19/44/2 20/45/2 20/45/2 
f 20/45/2 21/46/2 20/45/2 
f 20/45/2 21/46/2 21/46/2 
f 21/46/2 22/47/2 21/46/2 
f 21/46/2 22/47/2 22/47/2 
f 22/47/2 23/48/2 22/47/2 
f 22/47/2 23/48/2 23/48/2 
f 23/48/2 24/49/2 23/48/2 
f 23/48/2 24/49/2 24/49/2 
f 24/49/2 25/50/2 24/49/2 
f 24/49/2 25/50/2 25/50/2 
f 25/50/2 3/26/2 25/50/2 
f 25/50/2 3/26/2 3/26/2 
f 3/26/2 2/27/2 3/26/2 
f 3/26/2 2/27/2 2/27/2 
f 2/27/2 4/28/2 2/27/2 
f 2/27/2 4/28/2 4/28/2 
f 4/28/2 5/29/2 4/28/2 
f 4/28/2 5/29/2 5/29/2 
f 5/29/2 6/30/2 5/29/2 
f 5/29/2 6/30/2 6/30/2 
f 6/30/2 7/31/2 6/30/2 
f 6/30/2 7/31/2 7/31/2 
f 7/31/2 8/32/2 7/31/2 
f 7/31/2 8/32/2 8/32/2 
f 8/33/2 9/34/2 8/33/2 
f 8/33/2 9/34/2 9/34/2 
f 9/34/2 10/35/2 9/34/2 
f 9/34/2 10/35/2 10/35/2 
f 10/35/2 11/36/2 10/35/2 
f 10/35/2 11/36/2 11/36/2 
f 11/36/2 12/37/2 11/36/2 
f 11/36/2 12/37/2 12/37/2 
f 12/37/2 13/38/2 12/37/2 
f 12/37/2 13/38/2 13/38/2 
f 13/38/2 14/39/2 13/38/2 
f 13/38/2 14/39/2 14/39/2 
f 14/39/2 15/40/2 14/39/2 
f 14/39/2 15/40/2 15/40/2 
f 15/40/2 16/41/2 15/40/2 
f 15/40/2 16/41/2 16/41/2 
f 16/41/2 17/42/2 16/41/2 
f 16/41/2 17/42/2 17/42/2 
f 17/42/2 18/43/2 17/42/2 
f 17/42/2 18/43/2 18/43/2 
f 18/43/2 19/44/2 18/43/2 
f 18/43/2 19/44/2 19/44/2 
f 19/44/2 20/45/2 19/44/2 
f 19/44/2 20/45/2 20/45/2 
f 20/45/2 21/46/2 20/45/2 
f 20/45/2 21/46/2 21/46/2 
f 21/46/2 22/47/2 21/46/2 
f 21/46/2 22/47/2 22/47/2 
f 22/47/2 23/48/2 22/47/2 
f 22/47/2 23/48/2 23/48/2 
f 23/48/2 24/49/2 23/48/2 
f 23/48/2 24/49/2 24/49/2 
f 24/49/2 25/50/2 24/49/2 
f 24/49/2 25/50/2 25/50/2 
f 25/50/2 3/26/2 25/50/2 
f 25/50/2 3/26/2 3/26/2 
f 3/26/2 2/27/2 3/26/2 
f 3/26/2 2/27/2 2/27/2 
f 2/27/2 4/28/2 2/27/2 
f 2/27/2 4/28/2 4/28/2 
f 4/28/2 5/29/2 4/28/2 
f 4/28/2 5/29/2 5/29/2 
f 5/29/2 6/30/2 5/29/2 
f 5/29/2 6/30/2 6/30/2 
f 6/30/2 7/31/2 6/30/2 
f 6/30/2 7/31/2 7/31/2 
f 7/31/2 8/32/2 7/31/2 
f 7/31/2 8/32/2 8/32/2 
f 8/33/2 9/34/2 8/33/2 
f 8/33/2 9/34/2 9/34/2 
f 9/34/2 10/35/2 9/34/2 
f 9/34/2 10/35/2 10/35/2 
f 10/35/2 11/36/2 10/35/2 
f 10/35/2 11/36/2 11/36/2 
f 11/36/2 12/37/2 11/36/2 
f 11/36/2 12/37/2 12/37/2 
f 12/37/2 13/38/2 12/37/2 
f 12/37/2 13/38/2 13/38/2 
f 13/38/2 14/39/2 13/38/2 
f 13/38/2 14/39/2 14/39/2 
f 14/39/2 15/40/2 14/39/2 
f 14/39/2 15/40/2 15/40/2 
f 15/40/2 16/41/2 15/40/2 
f 15/40/2 16/41/2 16/41/2 
f 16/41/2 17/42/2 16/41/2 
f 16/41/2 17/42/2 17/42/2 
f 17/42/2 18/43/2 17/42/2 
f 17/42/2 18/43/2 18/43/2 
f 18/43/2 19/44/2 18/43/2 
f 18/43/2 19/44/2 19/44/2 
f 19/44/2 20/45/2 19/44/2 
f 19/44/2 20/45/2 20/45/2 
f 20/45/2 21/46/2 20/45/2 
f 20/45/2 21/46/2 21/46/2 
f 21/46/2 22/47/2 21/46/2 
f 21/46/2 22/47/2 22/47/2 
f 22/47/2 23/48/2 22/47/2 
f 22/47/2 23/48/2 23/48/2 
f 23/48/2 24/49/2 23/48/2 
f 23/48/2 24/49/2 24/49/2 
f 24/49/2 25/50/2 24/49/2 
f 24/49/2 25/50/2 25/50/2 
f 25/50/2 3/26/2 25/50/2 
f 25/50/2 3/26/2 3/26/2 
s 1
f 1/1/3 3/3/3 2/25/3 
f 1/1/3 2/25/3 4/24/3 
f 1/1/3 4/24/3 5/23/3 
f 1/1/3 5/23/3 6/22/3 
f 1/1/3 6/22/3 7/21/3 
f 1/1/3 7/21/3 8/20/3 
f 1/1/3 8/20/3 9/19/3 
f 1/1/3 9/19/3 10/18/3 
f 1/1/3 10/18/3 11/17/3 
f 1/1/3 11/17/3 12/16/3 
f 1/1/3 12/16/3 13/15/3 
f 1/1/3 13/15/3 14/14/3 
f 1/1/3 14/14/3 15/13/3 
f 1/1/3 15/13/3 16/12/3 
f 1/1/3 16/12/3 17/11/3 
f 1/1/3 17/11/3 18/10/3 
f 1/1/3 18/10/3 19/9/3 
f 1/1/3 19/9/3 20/8/3 
f 1/1/3 20/8/3 21/7/3 
f 1/1/3 21/7/3 22/6/3 
f 1/1/3 22/6/3 23/5/3 
f 1/1/3 23/5/3 24/4/3 
f 1/1/3 24/4/3 25/2/3 
f 1/1/3 25/2/3 3/3/3 
# 288 faces

