# 3ds Max Wavefront OBJ Exporter v0.97b - (c)2007 guruware
# File Created: 26.01.2013 20:26:46

mtllib plate2.mtl

#
# object Cylinder001
#

v  36.0555 0.0000 -0.0000
v  33.8811 0.0000 -12.3317
v  27.6201 0.0000 -23.1760
v  18.0278 0.0000 -31.2250
v  6.2610 0.0000 -35.5077
v  -6.2610 0.0000 -35.5077
v  -18.0278 0.0000 -31.2250
v  -27.6201 0.0000 -23.1760
v  -33.8811 0.0000 -12.3317
v  -36.0555 0.0000 -0.0000
v  -33.8811 0.0000 12.3317
v  -27.6201 0.0000 23.1760
v  -18.0278 0.0000 31.2250
v  -6.2610 0.0000 35.5077
v  6.2610 0.0000 35.5078
v  18.0277 0.0000 31.2250
v  27.6201 0.0000 23.1761
v  33.8811 0.0000 12.3317
v  31.1714 2.0564 -11.3455
v  25.4112 2.0564 -21.3225
v  16.5860 2.0564 -28.7277
v  5.7602 2.0564 -32.6680
v  -5.7603 2.0564 -32.6680
v  -16.5860 2.0564 -28.7277
v  -25.4112 2.0564 -21.3225
v  -31.1714 2.0564 -11.3455
v  -33.1719 2.0564 -0.0000
v  -31.1714 2.0564 11.3455
v  -25.4112 2.0564 21.3225
v  -16.5860 2.0564 28.7277
v  -5.7603 2.0564 32.6680
v  5.7602 2.0564 32.6680
v  16.5860 2.0564 28.7278
v  25.4112 2.0564 21.3225
v  31.1714 2.0564 11.3455
v  33.1719 2.0564 -0.0000
v  40.7020 3.4273 -14.8143
v  43.3142 3.4273 0.0000
v  33.1806 3.4273 -27.8418
v  21.6571 3.4273 -37.5112
v  7.5214 3.4273 -42.6561
v  -7.5214 3.4273 -42.6561
v  -21.6571 3.4273 -37.5112
v  -33.1806 3.4273 -27.8418
v  -40.7020 3.4273 -14.8143
v  -43.3142 3.4273 -0.0000
v  -40.7020 3.4273 14.8143
v  -33.1806 3.4273 27.8418
v  -21.6571 3.4273 37.5111
v  -7.5214 3.4273 42.6561
v  7.5214 3.4273 42.6561
v  21.6571 3.4273 37.5112
v  33.1805 3.4273 27.8418
v  40.7020 3.4273 14.8143
# 54 vertices

vn 1.0000 0.0000 -0.0000
vn 0.0000 -1.0000 -0.0000
vn 0.0000 1.0000 -0.0000
vn 0.4258 -0.9017 -0.0751
vn 0.3744 -0.9017 -0.2162
vn 0.2779 -0.9017 -0.3312
vn 0.1479 -0.9017 -0.4063
vn 0.0000 -0.9017 -0.4323
vn -0.1479 -0.9017 -0.4063
vn -0.2779 -0.9017 -0.3312
vn -0.3744 -0.9017 -0.2162
vn -0.4258 -0.9017 -0.0751
vn -0.4258 -0.9017 0.0751
vn -0.3744 -0.9017 0.2162
vn -0.2779 -0.9017 0.3312
vn -0.1479 -0.9017 0.4063
vn -0.0000 -0.9017 0.4323
vn 0.1479 -0.9017 0.4063
vn 0.2779 -0.9017 0.3312
vn 0.3744 -0.9017 0.2162
vn 0.4258 -0.9017 0.0751
vn -0.1339 0.9907 0.0236
vn -0.1178 0.9907 0.0680
vn -0.0874 0.9907 0.1042
vn -0.0465 0.9907 0.1278
vn 0.0000 0.9907 0.1360
vn 0.0465 0.9907 0.1278
vn 0.0874 0.9907 0.1042
vn 0.1178 0.9907 0.0680
vn 0.1339 0.9907 0.0236
vn 0.1339 0.9907 -0.0236
vn 0.1178 0.9907 -0.0680
vn 0.0874 0.9907 -0.1042
vn 0.0465 0.9907 -0.1278
vn 0.0000 0.9907 -0.1360
vn -0.0465 0.9907 -0.1278
vn -0.0874 0.9907 -0.1042
vn -0.1178 0.9907 -0.0680
vn -0.1339 0.9907 -0.0236
# 39 vertex normals

vt 169.9076 0.0000 1.0000
vt 182.4933 0.0000 1.0000
vt 195.0791 0.0000 1.0000
vt 207.6649 0.0000 1.0000
vt 220.2506 0.0000 1.0000
vt 232.8363 0.0000 1.0000
vt 6.2929 0.0000 1.0000
vt 18.8786 0.0000 1.0000
vt 31.4644 0.0000 1.0000
vt 44.0501 0.0000 1.0000
vt 56.6359 0.0000 1.0000
vt 69.2216 0.0000 1.0000
vt 81.8074 0.0000 1.0000
vt 94.3931 0.0000 1.0000
vt 106.9788 0.0000 1.0000
vt 119.5646 0.0000 1.0000
vt 132.1503 0.0000 1.0000
vt 144.7361 0.0000 1.0000
vt 157.3218 0.0000 1.0000
vt -6.2929 0.0000 1.0000
vt -18.8786 0.0000 1.0000
vt -31.4644 0.0000 1.0000
vt -44.0501 0.0000 1.0000
vt -56.6359 0.0000 1.0000
vt -69.2216 0.0000 1.0000
vt 245.4221 0.0000 1.0000
vt 258.0078 0.0000 1.0000
vt 270.5936 0.0000 1.0000
vt 283.1794 0.0000 1.0000
vt 295.7651 0.0000 1.0000
vt 308.3509 0.0000 1.0000
vt 320.9366 0.0000 1.0000
vt 333.5223 0.0000 1.0000
vt 346.1081 0.0000 1.0000
vt 358.6938 0.0000 1.0000
vt 371.2796 0.0000 1.0000
vt 383.8653 0.0000 1.0000
vt 396.4511 0.0000 1.0000
# 38 texture coords

g Cylinder001
usemtl wire_028089177
s 8
f 1/1/1 2/2/1 2/2/1 
f 2/2/1 1/1/1 1/1/1 
f 2/2/1 3/3/1 3/3/1 
f 3/3/1 2/2/1 2/2/1 
f 3/3/1 4/4/1 4/4/1 
f 4/4/1 3/3/1 3/3/1 
f 4/4/1 5/5/1 5/5/1 
f 5/5/1 4/4/1 4/4/1 
f 5/5/1 6/6/1 6/6/1 
f 6/6/1 5/5/1 5/5/1 
f 6/7/1 7/8/1 7/8/1 
f 7/8/1 6/7/1 6/7/1 
f 7/8/1 8/9/1 8/9/1 
f 8/9/1 7/8/1 7/8/1 
f 8/9/1 9/10/1 9/10/1 
f 9/10/1 8/9/1 8/9/1 
f 9/10/1 10/11/1 10/11/1 
f 10/11/1 9/10/1 9/10/1 
f 10/11/1 11/12/1 11/12/1 
f 11/12/1 10/11/1 10/11/1 
f 11/12/1 12/13/1 12/13/1 
f 12/13/1 11/12/1 11/12/1 
f 12/13/1 13/14/1 13/14/1 
f 13/14/1 12/13/1 12/13/1 
f 13/14/1 14/15/1 14/15/1 
f 14/15/1 13/14/1 13/14/1 
f 14/15/1 15/16/1 15/16/1 
f 15/16/1 14/15/1 14/15/1 
f 15/16/1 16/17/1 16/17/1 
f 16/17/1 15/16/1 15/16/1 
f 16/17/1 17/18/1 17/18/1 
f 17/18/1 16/17/1 16/17/1 
f 17/18/1 18/19/1 18/19/1 
f 18/19/1 17/18/1 17/18/1 
f 18/19/1 1/1/1 1/1/1 
f 1/1/1 18/19/1 18/19/1 
f 1/1/1 2/2/1 2/2/1 
f 2/2/1 1/1/1 1/1/1 
f 2/2/1 3/3/1 3/3/1 
f 3/3/1 2/2/1 2/2/1 
f 3/3/1 4/4/1 4/4/1 
f 4/4/1 3/3/1 3/3/1 
f 4/4/1 5/5/1 5/5/1 
f 5/5/1 4/4/1 4/4/1 
f 5/5/1 6/6/1 6/6/1 
f 6/6/1 5/5/1 5/5/1 
f 6/7/1 7/8/1 7/8/1 
f 7/8/1 6/7/1 6/7/1 
f 7/8/1 8/9/1 8/9/1 
f 8/9/1 7/8/1 7/8/1 
f 8/9/1 9/10/1 9/10/1 
f 9/10/1 8/9/1 8/9/1 
f 9/10/1 10/11/1 10/11/1 
f 10/11/1 9/10/1 9/10/1 
f 10/11/1 11/12/1 11/12/1 
f 11/12/1 10/11/1 10/11/1 
f 11/12/1 12/13/1 12/13/1 
f 12/13/1 11/12/1 11/12/1 
f 12/13/1 13/14/1 13/14/1 
f 13/14/1 12/13/1 12/13/1 
f 13/14/1 14/15/1 14/15/1 
f 14/15/1 13/14/1 13/14/1 
f 14/15/1 15/16/1 15/16/1 
f 15/16/1 14/15/1 14/15/1 
f 15/16/1 16/17/1 16/17/1 
f 16/17/1 15/16/1 15/16/1 
f 16/17/1 17/18/1 17/18/1 
f 17/18/1 16/17/1 16/17/1 
f 17/18/1 18/19/1 18/19/1 
f 18/19/1 17/18/1 17/18/1 
f 18/19/1 1/1/1 1/1/1 
f 1/1/1 18/19/1 18/19/1 
f 1/1/1 2/2/1 2/2/1 
f 2/2/1 1/1/1 1/1/1 
f 2/2/1 3/3/1 3/3/1 
f 3/3/1 2/2/1 2/2/1 
f 3/3/1 4/4/1 4/4/1 
f 4/4/1 3/3/1 3/3/1 
f 4/4/1 5/5/1 5/5/1 
f 5/5/1 4/4/1 4/4/1 
f 5/5/1 6/6/1 6/6/1 
f 6/6/1 5/5/1 5/5/1 
f 6/7/1 7/8/1 7/8/1 
f 7/8/1 6/7/1 6/7/1 
f 7/8/1 8/9/1 8/9/1 
f 8/9/1 7/8/1 7/8/1 
f 8/9/1 9/10/1 9/10/1 
f 9/10/1 8/9/1 8/9/1 
f 9/10/1 10/11/1 10/11/1 
f 10/11/1 9/10/1 9/10/1 
f 10/11/1 11/12/1 11/12/1 
f 11/12/1 10/11/1 10/11/1 
f 11/12/1 12/13/1 12/13/1 
f 12/13/1 11/12/1 11/12/1 
f 12/13/1 13/14/1 13/14/1 
f 13/14/1 12/13/1 12/13/1 
f 13/14/1 14/15/1 14/15/1 
f 14/15/1 13/14/1 13/14/1 
f 14/15/1 15/16/1 15/16/1 
f 15/16/1 14/15/1 14/15/1 
f 15/16/1 16/17/1 16/17/1 
f 16/17/1 15/16/1 15/16/1 
f 16/17/1 17/18/1 17/18/1 
f 17/18/1 16/17/1 16/17/1 
f 17/18/1 18/19/1 18/19/1 
f 18/19/1 17/18/1 17/18/1 
f 18/19/1 1/1/1 1/1/1 
f 1/1/1 18/19/1 18/19/1 
f 1/1/1 2/2/1 2/2/1 
f 2/2/1 1/1/1 1/1/1 
f 2/2/1 3/3/1 3/3/1 
f 3/3/1 2/2/1 2/2/1 
f 3/3/1 4/4/1 4/4/1 
f 4/4/1 3/3/1 3/3/1 
f 4/4/1 5/5/1 5/5/1 
f 5/5/1 4/4/1 4/4/1 
f 5/5/1 6/6/1 6/6/1 
f 6/6/1 5/5/1 5/5/1 
f 6/7/1 7/8/1 7/8/1 
f 7/8/1 6/7/1 6/7/1 
f 7/8/1 8/9/1 8/9/1 
f 8/9/1 7/8/1 7/8/1 
f 8/9/1 9/10/1 9/10/1 
f 9/10/1 8/9/1 8/9/1 
f 9/10/1 10/11/1 10/11/1 
f 10/11/1 9/10/1 9/10/1 
f 10/11/1 11/12/1 11/12/1 
f 11/12/1 10/11/1 10/11/1 
f 11/12/1 12/13/1 12/13/1 
f 12/13/1 11/12/1 11/12/1 
f 12/13/1 13/14/1 13/14/1 
f 13/14/1 12/13/1 12/13/1 
f 13/14/1 14/15/1 14/15/1 
f 14/15/1 13/14/1 13/14/1 
f 14/15/1 15/16/1 15/16/1 
f 15/16/1 14/15/1 14/15/1 
f 15/16/1 16/17/1 16/17/1 
f 16/17/1 15/16/1 15/16/1 
f 16/17/1 17/18/1 17/18/1 
f 17/18/1 16/17/1 16/17/1 
f 17/18/1 18/19/1 18/19/1 
f 18/19/1 17/18/1 17/18/1 
f 18/19/1 1/1/1 1/1/1 
f 1/1/1 18/19/1 18/19/1 
f 1/1/1 2/2/1 2/2/1 
f 2/2/1 1/1/1 1/1/1 
f 2/2/1 3/3/1 3/3/1 
f 3/3/1 2/2/1 2/2/1 
f 3/3/1 4/4/1 4/4/1 
f 4/4/1 3/3/1 3/3/1 
f 4/4/1 5/5/1 5/5/1 
f 5/5/1 4/4/1 4/4/1 
f 5/5/1 6/6/1 6/6/1 
f 6/6/1 5/5/1 5/5/1 
f 6/7/1 7/8/1 7/8/1 
f 7/8/1 6/7/1 6/7/1 
f 7/8/1 8/9/1 8/9/1 
f 8/9/1 7/8/1 7/8/1 
f 8/9/1 9/10/1 9/10/1 
f 9/10/1 8/9/1 8/9/1 
f 9/10/1 10/11/1 10/11/1 
f 10/11/1 9/10/1 9/10/1 
f 10/11/1 11/12/1 11/12/1 
f 11/12/1 10/11/1 10/11/1 
f 11/12/1 12/13/1 12/13/1 
f 12/13/1 11/12/1 11/12/1 
f 12/13/1 13/14/1 13/14/1 
f 13/14/1 12/13/1 12/13/1 
f 13/14/1 14/15/1 14/15/1 
f 14/15/1 13/14/1 13/14/1 
f 14/15/1 15/16/1 15/16/1 
f 15/16/1 14/15/1 14/15/1 
f 15/16/1 16/17/1 16/17/1 
f 16/17/1 15/16/1 15/16/1 
f 16/17/1 17/18/1 17/18/1 
f 17/18/1 16/17/1 16/17/1 
f 17/18/1 18/19/1 18/19/1 
f 18/19/1 17/18/1 17/18/1 
f 18/19/1 1/1/1 1/1/1 
f 1/1/1 18/19/1 18/19/1 
s 1
f 17/18/2 16/17/2 15/16/2 
f 15/16/2 14/15/2 13/14/2 
f 13/14/2 12/13/2 11/12/2 
f 15/16/2 13/14/2 11/12/2 
f 11/12/2 10/11/2 9/10/2 
f 9/10/2 8/9/2 7/8/2 
f 11/12/2 9/10/2 7/8/2 
f 7/8/2 6/7/2 5/20/2 
f 5/20/2 4/21/2 3/22/2 
f 7/8/2 5/20/2 3/22/2 
f 11/12/2 7/8/2 3/22/2 
f 15/16/2 11/12/2 3/22/2 
f 3/22/2 2/23/2 1/24/2 
f 15/16/2 3/22/2 1/24/2 
f 17/18/2 15/16/2 1/24/2 
f 18/25/2 17/18/2 1/24/2 
f 19/2/3 20/3/3 21/4/3 
f 21/4/3 22/5/3 23/6/3 
f 23/6/3 24/26/3 25/27/3 
f 21/4/3 23/6/3 25/27/3 
f 25/27/3 26/28/3 27/29/3 
f 27/29/3 28/30/3 29/31/3 
f 25/27/3 27/29/3 29/31/3 
f 29/31/3 30/32/3 31/33/3 
f 31/33/3 32/34/3 33/35/3 
f 29/31/3 31/33/3 33/35/3 
f 25/27/3 29/31/3 33/35/3 
f 21/4/3 25/27/3 33/35/3 
f 33/35/3 34/36/3 35/37/3 
f 21/4/3 33/35/3 35/37/3 
f 19/2/3 21/4/3 35/37/3 
f 36/38/3 19/2/3 35/37/3 
s off
f 1/1/4 2/2/4 37/2/4 
f 37/2/4 38/38/4 1/1/4 
f 2/2/5 3/3/5 39/3/5 
f 39/3/5 37/2/5 2/2/5 
f 3/3/6 4/4/6 40/4/6 
f 40/4/6 39/3/6 3/3/6 
f 4/4/7 5/5/7 41/5/7 
f 41/5/7 40/4/7 4/4/7 
f 5/5/8 6/6/8 42/6/8 
f 42/6/8 41/5/8 5/5/8 
f 6/7/9 7/8/9 43/26/9 
f 43/26/9 42/6/9 6/7/9 
f 7/8/10 8/9/10 44/27/10 
f 44/27/10 43/26/10 7/8/10 
f 8/9/11 9/10/11 45/28/11 
f 45/28/11 44/27/11 8/9/11 
f 9/10/12 10/11/12 46/29/12 
f 46/29/12 45/28/12 9/10/12 
f 10/11/13 11/12/13 47/30/13 
f 47/30/13 46/29/13 10/11/13 
f 11/12/14 12/13/14 48/31/14 
f 48/31/14 47/30/14 11/12/14 
f 12/13/15 13/14/15 49/32/15 
f 49/32/15 48/31/15 12/13/15 
f 13/14/16 14/15/16 50/33/16 
f 50/33/16 49/32/16 13/14/16 
f 14/15/17 15/16/17 51/34/17 
f 51/34/17 50/33/17 14/15/17 
f 15/16/18 16/17/18 52/35/18 
f 52/35/18 51/34/18 15/16/18 
f 16/17/19 17/18/19 53/36/19 
f 53/36/19 52/35/19 16/17/19 
f 17/18/20 18/19/20 54/37/20 
f 54/37/20 53/36/20 17/18/20 
f 18/19/21 1/1/21 38/38/21 
f 38/38/21 54/37/21 18/19/21 
f 38/38/22 37/2/22 19/2/22 
f 19/2/22 36/38/22 38/38/22 
f 37/2/23 39/3/23 20/3/23 
f 20/3/23 19/2/23 37/2/23 
f 39/3/24 40/4/24 21/4/24 
f 21/4/24 20/3/24 39/3/24 
f 40/4/25 41/5/25 22/5/25 
f 22/5/25 21/4/25 40/4/25 
f 41/5/26 42/6/26 23/6/26 
f 23/6/26 22/5/26 41/5/26 
f 42/6/27 43/26/27 24/26/27 
f 24/26/27 23/6/27 42/6/27 
f 43/26/28 44/27/28 25/27/28 
f 25/27/28 24/26/28 43/26/28 
f 44/27/29 45/28/29 26/28/29 
f 26/28/29 25/27/29 44/27/29 
f 45/28/30 46/29/30 27/29/30 
f 27/29/30 26/28/30 45/28/30 
f 46/29/31 47/30/31 28/30/31 
f 28/30/31 27/29/31 46/29/31 
f 47/30/32 48/31/32 29/31/32 
f 29/31/32 28/30/32 47/30/32 
f 48/31/33 49/32/33 30/32/33 
f 30/32/33 29/31/33 48/31/33 
f 49/32/34 50/33/34 31/33/34 
f 31/33/34 30/32/34 49/32/34 
f 50/33/35 51/34/35 32/34/35 
f 32/34/35 31/33/35 50/33/35 
f 51/34/36 52/35/36 33/35/36 
f 33/35/36 32/34/36 51/34/36 
f 52/35/37 53/36/37 34/36/37 
f 34/36/37 33/35/37 52/35/37 
f 53/36/38 54/37/38 35/37/38 
f 35/37/38 34/36/38 53/36/38 
f 54/37/39 38/38/39 36/38/39 
f 36/38/39 35/37/39 54/37/39 
# 284 faces

